<svg xmlns="http://www.w3.org/2000/svg" version="1.1" xmlns:xlink="http://www.w3.org/1999/xlink" xmlns:svgjs="http://svgjs.dev/svgjs" width="81.957" height="83.09"><svg version="1.1" xmlns="http://www.w3.org/2000/svg" xmlns:xlink="http://www.w3.org/1999/xlink" x="0px" y="0px" viewBox="0 0 81.957 83.09" style="enable-background:new 0 0 81.957 83.09;" xml:space="preserve">
<g id="SvgjsG1026">
	<path style="fill-rule:evenodd;clip-rule:evenodd;" d="M39.435,0.045c3.908-0.23,7.941,0.473,11.289,1.17
		c3.324,0.693,6.318,2.084,9.052,3.459c2.658,1.336,5.356,3.084,7.526,5.033c1.534,1.379,3.141,2.988,4.678,4.73
		c0.438,0.496,1.285,1.287,1.119,1.881c-0.225,0.805-1.767,0.611-2.746,0.611c-3.2-0.002-7.01-0.184-9.56,0.457
		c-3.443,0.863-6.537,2.43-9.052,4.322c-1.239,0.934-2.344,2.121-3.509,3.203c-3.479,3.232-6.655,6.654-10.018,10.017
		c-2.203,2.203-4.419,4.58-6.713,6.662c-0.585,0.533-1.219,1.02-1.78,1.576c-3.914,3.895-7.201,8.145-14.086,9.307
		c-2.79,0.471-6.27,0.406-9.611,0.406c-1.083,0-2.684,0.176-3.407-0.152c-1.188-0.537-1.501-2.578-1.78-4.17
		c-0.551-3.135-1.088-7.27-0.712-10.883c0.182-1.746,0.529-3.412,0.813-5.084c1.127-6.625,4.049-11.953,7.373-16.274
		c3.341-4.342,7.162-8.209,12.561-11.086c2.583-1.375,5.097-2.572,8.289-3.561c2.182-0.674,4.667-1.088,7.425-1.422
		C37.537,0.134,38.51,0.099,39.435,0.045z"></path>
	<path style="fill-rule:evenodd;clip-rule:evenodd;" d="M9.482,68.545c-0.32-0.578-0.95-0.738-0.763-1.373
		c0.2-0.676,1.512-0.561,2.543-0.561c3.012,0,6.356,0.109,9.001-0.203c5.178-0.613,9.027-3.438,12.205-6.254
		c1.091-0.969,2.155-2.008,3.102-3.053c1.911-2.104,3.992-4.133,6.153-6.102c1.077-0.98,1.952-2.148,3-3.152
		c1.046-1.002,2.027-2.078,3.051-3.101c1.03-1.031,1.931-2.186,2.95-3.205c2.03-2.029,3.986-4.205,6.204-6.051
		c2.212-1.842,4.671-3.535,7.933-4.373c0.798-0.205,1.676-0.398,2.542-0.51c3.069-0.391,6.489-0.201,10.272-0.203
		c0.92,0,2.015-0.006,2.492,0.305c0.775,0.508,1.016,2.043,1.22,3.205c0.631,3.584,0.744,8.568,0.305,12.256
		c-0.634,5.33-2.17,9.756-3.967,13.68c-1.847,4.031-4.387,7.453-7.221,10.475c-2.894,3.086-6.225,5.529-10.018,7.629
		c-5.626,3.113-12.627,5.531-21.358,5.084c-2.779-0.143-5.323-0.48-7.729-1.066C21.997,79.672,14.871,75.131,9.482,68.545z"></path>
</g>
<g id="SvgjsG1025">
</g>
</svg><style>@media (prefers-color-scheme: light) { :root { filter: none; } }
@media (prefers-color-scheme: dark) { :root { filter: none; } }
</style></svg>