<svg viewBox="0 0 247 88" fill="none" xmlns="http://www.w3.org/2000/svg">
<path d="M-0.0079999 0.303997H6.072V40.88H30.264V46H-0.0079999V0.303997ZM35.5545 0.303997H67.1065V5.424H41.6345V19.952H65.3785V25.072H41.6345V40.88H67.2985V46H35.5545V0.303997ZM74.8075 0.303997H83.1275L97.5275 38.704L111.992 0.303997H120.312V46H114.552V7.984H114.424L100.152 46H94.9675L80.6955 7.984H80.5675V46H74.8075V0.303997ZM166.91 29.488C166.91 35.3333 165.352 39.728 162.238 42.672C159.123 45.5733 154.686 47.024 148.926 47.024C143.038 47.024 138.43 45.6373 135.102 42.864C131.816 40.048 130.174 35.5893 130.174 29.488V0.303997H136.254V29.488C136.254 33.584 137.342 36.6987 139.518 38.832C141.694 40.9227 144.83 41.968 148.926 41.968C152.808 41.968 155.752 40.9227 157.757 38.832C159.806 36.6987 160.83 33.584 160.83 29.488V0.303997H166.91V29.488ZM176.617 0.303997H208.169V5.424H182.697V19.952H206.441V25.072H182.697V40.88H208.361V46H176.617V0.303997ZM215.742 0.303997H221.822V40.88H246.014V46H215.742V0.303997ZM-0.0079999 40.304H6.072V80.88H30.264V86H-0.0079999V40.304ZM35.5545 40.304H67.1065V45.424H41.6345V59.952H65.3785V65.072H41.6345V80.88H67.2985V86H35.5545V40.304ZM176.617 40.304H208.169V45.424H182.697V59.952H206.441V65.072H182.697V80.88H208.361V86H176.617V40.304Z" fill="black"/>
</svg>
